<svg width="20" height="20" viewBox="0 0 20 20" fill="none" xmlns="http://www.w3.org/2000/svg">
<g clip-path="url(#clip0)">
<path d="M16.3381 9.73055L15.8301 5.60349L14.8781 5.72068L14.8784 5.72002L13.0327 4.68131C12.8359 4.57053 12.6099 4.52233 12.385 4.54311L9.47069 4.81264C9.11245 4.84576 8.79233 5.05018 8.61159 5.36127L6.55754 8.89672C6.40586 9.15778 6.52492 9.49258 6.80738 9.59926L6.8914 9.63098C7.05304 9.69203 7.21918 9.72739 7.38523 9.74121L7.12496 9.96789L6.60426 10.4216L5.12329 11.6848C4.85965 11.9145 4.83227 12.3141 5.06192 12.5777L5.21215 12.7498C5.50707 13.088 6.02039 13.1231 6.35922 12.8281L6.92523 13.4773C7.10926 13.6887 7.37886 13.7821 7.63789 13.7503C7.79355 13.7311 7.94542 13.6666 8.07226 13.5557L8.63765 14.2049C8.82233 14.4168 9.0919 14.5096 9.35093 14.4778C9.50659 14.4586 9.6585 14.3947 9.78538 14.2838L10.0926 14.5493C10.3876 14.8881 10.9015 14.9231 11.2404 14.6281L11.6581 14.2637L15.1696 11.5289L15.1734 11.5254L16.5589 11.5241L16.3381 9.73055Z" fill="#F29F5C"/>
<path d="M14.8332 10.4622L14.8294 10.4656L11.3179 13.2005L10.9002 13.5649C10.5614 13.8599 10.0474 13.8248 9.75244 13.4861L9.44517 13.2205C9.3183 13.3314 9.16634 13.3954 9.01072 13.4145C8.7517 13.4464 8.48217 13.3535 8.29744 13.1416L7.73205 12.4924C7.60518 12.6033 7.4533 12.6678 7.29768 12.687C7.03866 12.7189 6.76905 12.6254 6.58503 12.4141L6.01901 11.7649C5.72894 12.0174 5.31128 12.0273 5.01195 11.8128C4.85843 12.0443 4.8707 12.358 5.06206 12.5777L5.2123 12.7498C5.50722 13.088 6.02054 13.1231 6.35936 12.8281L6.92538 13.4773C7.1094 13.6886 7.37901 13.7821 7.63803 13.7502C7.79369 13.7311 7.94553 13.6666 8.0724 13.5556L8.63779 14.2049C8.82248 14.4168 9.09205 14.5096 9.35107 14.4778C9.50673 14.4586 9.65865 14.3947 9.78552 14.2838L10.0928 14.5493C10.3878 14.8881 10.9017 14.9232 11.2405 14.6282L11.6582 14.2638L15.1698 11.5289L15.1735 11.5254L16.559 11.5241L16.4057 10.2789L14.8332 10.4622Z" fill="#D37D42"/>
<path d="M15.4726 12.2473L13.5912 10.6251L13.068 10.1743L12.6936 9.85186L11.084 8.46437L11.2699 6.88195C11.3328 6.34676 10.9958 5.84571 10.4765 5.702L6.9677 4.7311C6.59645 4.62837 6.20407 4.80063 6.02845 5.14348L5.5872 6.00481L3.69314 5.87626L3.20799 10.0061L2.99713 11.8008L4.8408 11.9234L4.84462 11.9269L8.69625 15.2469L9.11597 15.609C9.4564 15.9022 9.97011 15.8643 10.2632 15.5238L10.825 14.872C10.9524 14.9822 11.1047 15.0453 11.2605 15.0636C11.5197 15.0941 11.7887 14.9997 11.9723 14.7868L12.534 14.1345C12.6615 14.2447 12.8137 14.3084 12.9695 14.3267C13.2287 14.3571 13.4978 14.2622 13.6806 14.0498L14.243 13.3974C14.5835 13.6906 15.0966 13.6526 15.3896 13.3128L15.5389 13.1398C15.7671 12.875 15.7375 12.4755 15.4726 12.2473Z" fill="#F9C295"/>
<path d="M15.4726 12.2473L14.8995 11.7532C15.0858 12.0002 15.0819 12.3516 14.8717 12.5955L14.7133 12.7791C14.4022 13.1398 13.8575 13.1802 13.4961 12.869L12.899 13.5615C12.7049 13.7869 12.4193 13.8877 12.1441 13.8554C11.9788 13.836 11.8172 13.7684 11.6819 13.6514L11.0855 14.3439C10.8907 14.5699 10.6051 14.6701 10.3299 14.6378C10.1646 14.6184 10.0029 14.5514 9.86758 14.4344L9.27126 15.1263C9.15892 15.2568 9.01583 15.3448 8.86212 15.3901L9.11599 15.6091C9.45642 15.9022 9.97012 15.8643 10.2632 15.5239L10.825 14.8721C10.9524 14.9823 11.1047 15.0454 11.2605 15.0637C11.5197 15.0941 11.7887 14.9998 11.9723 14.7869L12.5341 14.1345C12.6615 14.2447 12.8137 14.3084 12.9695 14.3267C13.2287 14.3572 13.4978 14.2622 13.6806 14.0498L14.243 13.3975C14.5835 13.6906 15.0966 13.6527 15.3896 13.3128L15.5389 13.1399C15.7671 12.875 15.7375 12.4755 15.4726 12.2473Z" fill="#E59F6A"/>
<path d="M14.4335 13.1803L13.4026 12.2914C13.2801 12.1858 13.0951 12.1994 12.9894 12.322C12.8837 12.4445 12.8974 12.6295 13.0199 12.7352L14.0491 13.6225L14.243 13.3975C14.3205 13.4642 14.4071 13.5128 14.4977 13.5456C14.5646 13.4265 14.5409 13.2729 14.4335 13.1803Z" fill="#E59F6A"/>
<path d="M12.7852 14.2823C12.8558 14.1625 12.8332 14.0059 12.7242 13.9119L11.7981 13.1135C11.6756 13.0078 11.4906 13.0215 11.3849 13.144C11.2793 13.2666 11.293 13.4516 11.4155 13.5573L12.3416 14.3557C12.342 14.356 12.3424 14.3563 12.3428 14.3566L12.5341 14.1344C12.6104 14.2004 12.6957 14.2494 12.7852 14.2823Z" fill="#E59F6A"/>
<path d="M4.93693 11.9193L4.71377 12.214C4.47076 12.5349 4.53389 12.992 4.85478 13.2351C5.17568 13.4781 5.63282 13.415 5.87587 13.0941L6.09903 12.7994C6.34204 12.4785 6.27891 12.0213 5.95802 11.7783C5.63712 11.5353 5.17994 11.5984 4.93693 11.9193Z" fill="#F29F5C"/>
<path d="M6.29615 12.5391L5.87588 13.0941C5.63287 13.415 5.69599 13.8721 6.01689 14.1152C6.33779 14.3582 6.79493 14.295 7.03798 13.9741L7.45825 13.4192C7.70126 13.0983 7.63813 12.6411 7.31724 12.3981C6.9963 12.1551 6.53915 12.2182 6.29615 12.5391Z" fill="#F29F5C"/>
<path d="M7.61069 13.2178L7.03792 13.9741C6.79492 14.295 6.85804 14.7522 7.17894 14.9952C7.49984 15.2382 7.95698 15.1751 8.20003 14.8542L8.7728 14.0979C9.0158 13.777 8.95268 13.3198 8.63178 13.0768C8.31089 12.8337 7.85374 12.8969 7.61069 13.2178Z" fill="#F29F5C"/>
<path d="M8.80605 14.054L8.20004 14.8542C7.95703 15.1751 8.02015 15.6322 8.34105 15.8753C8.66195 16.1183 9.1191 16.0551 9.36215 15.7342L9.96816 14.934C10.2112 14.6131 10.148 14.156 9.82715 13.913C9.50621 13.6699 9.04906 13.7331 8.80605 14.054Z" fill="#F29F5C"/>
<path d="M14.8785 5.72002L13.0328 4.68131C12.8359 4.57053 12.61 4.52233 12.385 4.54311L9.47074 4.81264C9.1125 4.84576 8.79239 5.05018 8.61164 5.36127L6.55759 8.89672C6.40591 9.15782 6.52497 9.49258 6.80743 9.59926L6.89145 9.63098C7.64438 9.91535 8.49469 9.67336 8.98504 9.0352L9.77203 8.01099C9.77203 8.01099 11.6638 10.2013 13.7466 7.64341" fill="#F29F5C"/>
<path d="M19.9977 12.0759L19.0324 4.23413C19.0229 4.15702 18.9832 4.08683 18.9219 4.03902C18.8607 3.9912 18.783 3.96972 18.7058 3.97917L16.4485 4.25706C15.8622 4.32925 15.444 4.86495 15.5162 5.4512L16.2913 11.748C16.358 12.2901 16.821 12.6885 17.3538 12.6885C17.3972 12.6885 17.4413 12.6858 17.4854 12.6804L19.7428 12.4025C19.9033 12.3827 20.0175 12.2365 19.9977 12.0759Z" fill="#47568C"/>
<path d="M19.9978 12.0759L19.8918 11.2152C19.8438 11.2857 19.767 11.3361 19.6757 11.3473L17.3094 11.6386C17.2631 11.6443 17.217 11.6471 17.1714 11.6471C16.773 11.6471 16.412 11.4345 16.2123 11.1064L16.2913 11.748C16.358 12.2901 16.821 12.6885 17.3538 12.6885C17.3973 12.6885 17.4413 12.6858 17.4855 12.6804L19.7428 12.4025C19.9034 12.3827 20.0176 12.2365 19.9978 12.0759Z" fill="#2F3A60"/>
<path d="M3.55147 4.25701L1.29413 3.97912C1.21691 3.96963 1.13929 3.99116 1.07804 4.03897C1.01679 4.08678 0.977064 4.15698 0.967572 4.23408L0.00222404 12.0759C-0.0175415 12.2365 0.0966377 12.3827 0.257184 12.4025L2.51452 12.6804C2.55874 12.6858 2.60268 12.6885 2.64616 12.6885C3.17897 12.6885 3.64194 12.29 3.70866 11.748L4.48381 5.45115C4.556 4.8649 4.13775 4.3292 3.55147 4.25701Z" fill="#DD1C4B"/>
<path d="M0.00222464 12.0759L0.108201 11.2152C0.156247 11.2857 0.232966 11.3361 0.324294 11.3473L2.69057 11.6386C2.7369 11.6443 2.78303 11.6471 2.82858 11.6471C3.22702 11.6471 3.58799 11.4345 3.78768 11.1064L3.70869 11.748C3.64198 12.2901 3.17905 12.6885 2.6462 12.6885C2.60276 12.6885 2.55874 12.6858 2.51456 12.6804L0.257224 12.4025C0.0965993 12.3827 -0.0175409 12.2365 0.00222464 12.0759Z" fill="#B41D42"/>
<path d="M18.1249 11.3866C18.4377 11.3866 18.6912 11.1331 18.6912 10.8203C18.6912 10.5075 18.4377 10.254 18.1249 10.254C17.8121 10.254 17.5586 10.5075 17.5586 10.8203C17.5586 11.1331 17.8121 11.3866 18.1249 11.3866Z" fill="#EBEEF2"/>
<path d="M1.84336 11.3866C2.15614 11.3866 2.40969 11.1331 2.40969 10.8203C2.40969 10.5075 2.15614 10.254 1.84336 10.254C1.53059 10.254 1.27704 10.5075 1.27704 10.8203C1.27704 11.1331 1.53059 11.3866 1.84336 11.3866Z" fill="#EBEEF2"/>
</g>
<defs>
<clipPath id="clip0">
<rect width="20" height="20" fill="white"/>
</clipPath>
</defs>
</svg>
