<svg width="20" height="20" viewBox="0 0 20 20" fill="none" xmlns="http://www.w3.org/2000/svg">
<g clip-path="url(#clip0)">
<path fill-rule="evenodd" clip-rule="evenodd" d="M14.9835 3.1489L14.2922 3.84015L8.46449 9.6669L3.84019 14.2925L3.14894 14.9837C3.00066 15.132 3.01777 14.9837 2.84097 14.8069C2.19078 14.1578 1.13679 14.1578 0.487769 14.8069C-0.162427 15.4571 -0.162427 16.51 0.487769 17.1602C0.91894 17.5914 1.56113 17.7545 2.14402 17.5766C2.18394 17.5651 2.18621 17.5754 2.21589 17.6062L2.4041 17.7944C2.42917 17.8183 2.43375 17.8218 2.42347 17.856C2.25351 18.4241 2.39152 19.064 2.84097 19.5123C3.49003 20.1625 4.54402 20.1625 5.19304 19.5123C5.84324 18.8632 5.84324 17.8092 5.19304 17.1601C5.01625 16.9833 4.86796 17.0005 5.01738 16.851C5.24781 16.6206 5.4782 16.3913 5.70863 16.1609L7.9455 13.9228L16.1607 5.70862C16.3911 5.47819 16.6203 5.24776 16.8508 5.01737C17.0002 4.86796 16.9831 5.01624 17.1599 5.19304C17.809 5.84323 18.863 5.84323 19.512 5.19304C20.1622 4.54397 20.1622 3.48995 19.512 2.84089C19.0637 2.39144 18.4238 2.25343 17.8557 2.42339C17.8215 2.43366 17.8181 2.42909 17.7941 2.40401L17.6059 2.21581C17.5752 2.18616 17.5649 2.18386 17.5763 2.14394C17.7542 1.56104 17.5911 0.918818 17.16 0.487646C16.5098 -0.162549 15.4569 -0.162549 14.8068 0.487646C14.1577 1.13671 14.1577 2.19073 14.8068 2.84093C14.9835 3.01772 15.1318 3.00062 14.9835 3.1489Z" fill="#C6D0DA"/>
<path fill-rule="evenodd" clip-rule="evenodd" d="M5.01738 3.14986L5.70863 3.84111L11.5352 9.66783L16.1606 14.2934L16.8507 14.9846C17.0002 15.1329 16.983 14.9846 17.1599 14.8078C17.8089 14.1588 18.8629 14.1588 19.5131 14.8078C20.1621 15.458 20.1621 16.5109 19.5131 17.1611C19.0808 17.5923 18.4397 17.7554 17.8557 17.5775C17.8157 17.5661 17.8146 17.5763 17.7838 17.6071L17.5956 17.7953C17.5716 17.8193 17.5659 17.8227 17.5762 17.8569C17.7473 18.425 17.6082 19.0649 17.1599 19.5132C16.5097 20.1634 15.4568 20.1634 14.8067 19.5132C14.1576 18.8642 14.1576 17.8101 14.8067 17.1611C14.9835 16.9843 15.1318 17.0014 14.9835 16.8519C14.753 16.6215 14.5227 16.3922 14.2922 16.1618L12.0553 13.9238L3.84019 5.70963C3.60976 5.4792 3.37937 5.24877 3.14894 5.01838C3.00066 4.86897 3.01777 5.01725 2.84097 5.19404C2.19078 5.84424 1.13679 5.84424 0.487769 5.19404C-0.162427 4.54498 -0.162427 3.49096 0.487769 2.8419C0.93605 2.39244 1.5771 2.25443 2.14402 2.4244C2.17824 2.43467 2.18167 2.4301 2.20675 2.40502L2.39496 2.21682C2.4246 2.18717 2.43601 2.18486 2.42347 2.14494C2.24554 1.56205 2.40863 0.919825 2.84097 0.488654C3.49003 -0.161542 4.54402 -0.161542 5.19304 0.488654C5.84324 1.13772 5.84324 2.19174 5.19304 2.84193C5.01625 3.01869 4.86796 3.00158 5.01738 3.14986Z" fill="#C6D0DA"/>
<path fill-rule="evenodd" clip-rule="evenodd" d="M19.5131 3.68962C18.8629 4.33868 17.8089 4.33868 17.1599 3.68962C16.9831 3.51282 17.0002 3.3645 16.8507 3.51282L16.1606 4.20407L14.3047 6.06C14.5317 6.34063 14.7325 6.64402 14.9013 6.96688L16.1606 5.70867L16.8507 5.01743C17.0001 4.86801 16.983 5.01629 17.1599 5.19309C17.8089 5.84328 18.8629 5.84328 19.5119 5.19309C20.0344 4.6718 20.137 3.88926 19.8211 3.26532C19.7435 3.41813 19.6408 3.56184 19.5131 3.68962Z" fill="#A0AAB7"/>
<path fill-rule="evenodd" clip-rule="evenodd" d="M5.19302 19.5123C5.84322 18.8633 5.84322 17.8093 5.19302 17.1602C5.01623 16.9834 4.86795 17.0005 5.01736 16.8511L5.70861 16.1609L6.26185 15.6077C6.16032 15.4617 6.10103 15.2849 6.10103 15.0955V14.2639L4.42537 15.9385L3.73412 16.6298C3.58584 16.7792 3.73412 16.7621 3.91092 16.9389C4.56111 17.588 4.56111 18.642 3.91092 19.2911C3.68392 19.5192 3.40674 19.6663 3.11475 19.7348C3.7592 20.1511 4.62838 20.077 5.19302 19.5123Z" fill="#A0AAB7"/>
<path fill-rule="evenodd" clip-rule="evenodd" d="M5.7086 3.84018L5.01735 3.14893C4.86793 3.00065 5.01621 3.01776 5.19301 2.84092C5.84321 2.19073 5.84321 1.13671 5.19301 0.487643C4.63864 -0.0667324 3.79114 -0.147748 3.15009 0.243541C3.34512 0.324518 3.52766 0.444322 3.68622 0.602877C4.33528 1.25194 4.33528 2.30596 3.68622 2.95616C3.50942 3.13295 3.36114 3.11585 3.50942 3.26417L4.20067 3.95542L5.98012 5.73491C6.24359 5.45545 6.53676 5.20448 6.85387 4.98545L5.7086 3.84018Z" fill="#A0AAB7"/>
<path fill-rule="evenodd" clip-rule="evenodd" d="M16.8507 14.9838L16.1606 14.2925L14.5534 12.6864C14.3595 12.9659 14.1404 13.2271 13.8998 13.4666V13.6548L16.0408 15.7959L16.7321 16.486C16.8804 16.6354 16.8633 16.4872 17.0401 16.3104C17.6903 15.6602 18.7431 15.6602 19.3933 16.3104C19.553 16.47 19.6739 16.6548 19.7549 16.8522C20.1484 16.2111 20.0674 15.3624 19.513 14.8069C18.8628 14.1579 17.8089 14.1579 17.1598 14.8069C16.9831 14.9838 17.0002 15.132 16.8507 14.9838Z" fill="#A0AAB7"/>
<path fill-rule="evenodd" clip-rule="evenodd" d="M16.2081 6.45874C15.6859 5.53178 14.9297 4.73803 14.0137 4.14537C12.8951 3.42351 11.5397 3 10.0772 3C9.71053 3 9.35101 3.02663 9 3.07726C10.5766 3.30766 11.9763 4.03482 13.0107 5.08031C13.7911 5.86877 14.3633 6.83965 14.6458 7.91706C14.777 8.41249 14.8456 8.92926 14.8456 9.46195C14.8456 10.2956 14.6772 11.0921 14.369 11.8246C14.0138 12.6663 13.4759 13.4214 12.801 14.0474V14.7226V15.9492C12.801 16.2848 12.6298 16.5844 12.3658 16.7776C12.1747 16.9174 11.9335 17 11.6738 17H13.8283C14.2107 17 14.5502 16.8202 14.7543 16.5472C14.8813 16.3767 14.9554 16.1703 14.9554 15.9492V14.0473C15.2565 13.7677 15.5304 13.4626 15.773 13.1364C16.5477 12.0922 17 10.827 17 9.46186C17 8.37788 16.7147 7.35637 16.2081 6.45874V6.45874Z" fill="#D6D6D6"/>
<path fill-rule="evenodd" clip-rule="evenodd" d="M16 9.50023C16 11.3032 15.2656 12.9351 14.0803 14.1129V16.0256C14.0803 16.6073 13.6029 17.0828 13.0216 17.0828H12.0031L11.6487 16.991L11.2943 17.0828H9.85421L9.5 17.0369L9.14533 17.0828H7.7067L7.35226 17.0369L6.99778 17.0828H5.97791C5.39661 17.0828 4.92115 16.6073 4.92115 16.0256V14.1129C3.73397 12.9352 3 11.3033 3 9.50023C3 5.90983 5.90937 3 9.49977 3C13.0902 3 16 5.90987 16 9.50023V9.50023Z" fill="#FAF8F9"/>
<path fill-rule="evenodd" clip-rule="evenodd" d="M8.59956 8.74727C8.41739 7.92067 7.83462 7.31516 7.14469 7.31516C6.52711 7.31516 5.99527 7.80011 5.75951 8.49541C5.67648 8.74057 5.63092 9.01252 5.63092 9.2992C5.63092 10.0159 5.92026 10.6442 6.35567 10.9925C6.58473 11.1761 6.85535 11.2819 7.14474 11.2819C7.5078 11.2819 7.83999 11.1158 8.10126 10.8372C8.44152 10.4728 8.65856 9.9195 8.65856 9.2992C8.65851 9.10763 8.63842 8.92274 8.59956 8.74727Z" fill="#918291"/>
<path d="M12.0032 14.8856V17.0828H11.2943V14.8856C11.2943 14.69 11.4531 14.5312 11.6487 14.5312C11.8444 14.5311 12.0032 14.69 12.0032 14.8856V14.8856Z" fill="#A0AAB7"/>
<path d="M7.70679 14.8856V17.0828H6.99786V14.8856C6.99786 14.69 7.15664 14.5312 7.3523 14.5312C7.54847 14.5311 7.70679 14.69 7.70679 14.8856V14.8856Z" fill="#A0AAB7"/>
<path d="M9.85419 14.8856V17.0828H9.14526V14.8856C9.14526 14.69 9.30404 14.5312 9.4997 14.5312C9.69541 14.5311 9.85419 14.69 9.85419 14.8856V14.8856Z" fill="#A0AAB7"/>
<path fill-rule="evenodd" clip-rule="evenodd" d="M13.2401 8.49541C13.0057 7.80011 12.4739 7.31516 11.8549 7.31516C11.165 7.31516 10.5823 7.92067 10.4001 8.74727C10.3612 8.92274 10.3411 9.10763 10.3411 9.2992C10.3411 9.9195 10.5582 10.4728 10.8984 10.8372C11.1596 11.1158 11.4932 11.2819 11.8549 11.2819C12.1443 11.2819 12.4149 11.1761 12.644 10.9925C13.0794 10.6442 13.3701 10.0159 13.3701 9.2992C13.3701 9.01252 13.3232 8.74057 13.2401 8.49541V8.49541Z" fill="#918291"/>
<path fill-rule="evenodd" clip-rule="evenodd" d="M13.2401 8.49541C13.0056 7.80011 12.4738 7.31516 11.8549 7.31516C11.6713 7.31516 11.4959 7.358 11.3324 7.43705C11.7557 7.6045 12.1014 8.00908 12.2782 8.53289C12.3612 8.77539 12.4068 9.04464 12.4081 9.32733V9.33535C12.4081 9.76136 12.305 10.1553 12.1308 10.4795C12.0116 10.7005 11.8589 10.8881 11.6821 11.0287C11.599 11.0957 11.5106 11.1533 11.4168 11.1975C11.5561 11.2524 11.7035 11.2819 11.8549 11.2819C12.1442 11.2819 12.4148 11.1761 12.6439 10.9925C13.0793 10.6442 13.37 10.0159 13.37 9.2992C13.37 9.01252 13.3231 8.74057 13.2401 8.49541V8.49541Z" fill="#685D68"/>
<path fill-rule="evenodd" clip-rule="evenodd" d="M8.59959 8.74727C8.41742 7.92067 7.83465 7.31516 7.14472 7.31516C6.96117 7.31516 6.78437 7.358 6.62091 7.43705C7.11123 7.63129 7.49568 8.14037 7.63771 8.78475C7.67657 8.96023 7.69666 9.14511 7.69666 9.33535C7.69666 9.45055 7.68996 9.56308 7.67523 9.67163C7.64844 9.88064 7.59619 10.0775 7.52384 10.2598C7.42741 10.4969 7.29745 10.7059 7.13936 10.8734C7.01077 11.0113 6.86474 11.1212 6.70665 11.1976C6.84465 11.2525 6.992 11.282 7.14472 11.282C7.50779 11.282 7.83998 11.1159 8.10124 10.8372C8.4415 10.4728 8.65854 9.91954 8.65854 9.29925C8.65854 9.10763 8.63845 8.92274 8.59959 8.74727V8.74727Z" fill="#685D68"/>
</g>
<defs>
<clipPath id="clip0">
<rect width="20" height="20" fill="white"/>
</clipPath>
</defs>
</svg>
