<svg width="20" height="20" viewBox="0 0 20 20" fill="none" xmlns="http://www.w3.org/2000/svg">
<path d="M15.2734 2.92969V0.585938H10H4.72656V2.92969C4.72656 5.73691 6.8918 7.93949 9.13254 10C6.8918 12.0605 4.72656 14.2631 4.72656 17.0703V19.4141H10H15.2734V17.0703C15.2734 14.2631 13.1082 12.0605 10.8675 10C13.1082 7.93949 15.2734 5.73691 15.2734 2.92969Z" fill="#EDF5FF"/>
<path d="M15.2734 17.0703C15.2734 14.2631 13.1082 12.0605 10.8675 10C13.1082 7.93949 15.2734 5.73691 15.2734 2.92969V0.585938H10V19.4141H15.2734V17.0703Z" fill="#D5E8FE"/>
<path d="M9.9998 9.20523C11.1932 8.1102 12.3063 7.03484 13.0758 5.89844H9.9998H6.92383C7.69328 7.03484 8.80645 8.11016 9.9998 9.20523Z" fill="#FED843"/>
<path d="M10.3422 13.0402L10 12.7936L9.65781 13.0402C9.55254 13.1157 7.07031 14.9635 7.07031 17.0704V18.2422H10H12.9297V17.0704C12.9297 14.9635 10.4475 13.1157 10.3422 13.0402Z" fill="#FED843"/>
<path d="M13.076 5.89844H10V9.20523C11.1934 8.11016 12.3065 7.03484 13.076 5.89844Z" fill="#FABE2C"/>
<path d="M12.9297 17.0704C12.9297 14.9635 10.4475 13.1157 10.3422 13.0402L10 12.7936V18.2422H12.9297V17.0704Z" fill="#FABE2C"/>
<path d="M15.2734 17.6562H10H4.72656C4.07934 17.6562 3.55469 18.1809 3.55469 18.8281V20H10H16.4453V18.8281C16.4453 18.1809 15.9207 17.6562 15.2734 17.6562Z" fill="#47568C"/>
<path d="M10 0H3.55469V1.17188C3.55469 1.8191 4.07934 2.34375 4.72656 2.34375H10H15.2734C15.9207 2.34375 16.4453 1.8191 16.4453 1.17188V0H10Z" fill="#47568C"/>
<path d="M16.4453 20V18.8281C16.4453 18.1809 15.9207 17.6562 15.2734 17.6562H10V20H16.4453Z" fill="#29376D"/>
<path d="M16.4453 1.17188V0H10V2.34375H15.2734C15.9207 2.34375 16.4453 1.8191 16.4453 1.17188Z" fill="#29376D"/>
</svg>
