<svg width="20" height="20" viewBox="0 0 20 20" fill="none" xmlns="http://www.w3.org/2000/svg">
<g clip-path="url(#clip0)">
<path d="M10.1386 8.30847C7.55593 5.72614 4.72403 4.371 3.81306 5.28165C3.71309 5.38636 3.63954 5.51335 3.59847 5.65217L3.58381 5.63751L2.71382 9.20279L1.84749 12.7574L0.820552 16.9664L0.170471 19.6321L4.01931 18.1756L8.91474 16.3233L12.8202 14.8456L12.8156 14.8409C12.9463 14.7992 13.0659 14.7285 13.1654 14.634C14.0764 13.723 12.7213 10.8911 10.1386 8.30847Z" fill="#DD1C4B"/>
<path d="M10.1386 8.30741C7.55604 5.72485 4.72405 4.36966 3.81319 5.28052C2.90233 6.19138 4.25752 9.02336 6.84008 11.6059C9.42265 14.1885 12.2546 15.5437 13.1655 14.6328C14.0764 13.722 12.7212 10.89 10.1386 8.30741Z" fill="#D1E3EE"/>
<path d="M12.4657 14.9609C11.9993 14.969 11.5367 14.8772 11.1089 14.6917L7.91677 15.8995L3.01969 17.7501L0.393717 18.7437L0.170471 19.659L4.0193 18.2026L8.91472 16.3503L12.499 14.9942L12.4657 14.9609Z" fill="#B21D48"/>
<path d="M16.4975 12.3286C16.4576 12.3284 16.418 12.3213 16.3805 12.3076C14.689 11.6739 12.8605 11.4962 11.0786 11.7924L9.88837 11.9907C9.70619 12.0167 9.53742 11.8901 9.51143 11.7079C9.48632 11.5319 9.60382 11.3671 9.77841 11.3336L10.969 11.1337C12.8663 10.8184 14.8132 11.0075 16.6144 11.6818C16.7876 11.744 16.8775 11.9349 16.8153 12.1081C16.7672 12.2418 16.6396 12.3304 16.4975 12.3286Z" fill="#FFBF41"/>
<path d="M10.4998 10.3292C10.3158 10.3282 10.1675 10.1781 10.1686 9.99407C10.1693 9.86704 10.2422 9.7515 10.3566 9.69615L17.3538 6.36412C17.52 6.28498 17.7189 6.35554 17.798 6.52172C17.8771 6.68791 17.8066 6.88675 17.6404 6.96588L10.6431 10.2979C10.5983 10.3189 10.5494 10.3296 10.4998 10.3292Z" fill="#FFBF41"/>
<path d="M6.60331 9.66287C6.55937 9.66296 6.51584 9.65425 6.47536 9.63722C6.30551 9.56637 6.22525 9.37128 6.29609 9.20143V9.20139L6.78057 8.03884C7.52599 6.25766 7.6998 4.28892 7.27804 2.4047C7.23481 2.22581 7.34481 2.0458 7.52366 2.00256C7.70255 1.95933 7.88256 2.06933 7.92579 2.24818C7.92675 2.25213 7.92762 2.25609 7.92846 2.26009C8.38028 4.27851 8.19398 6.38744 7.39533 8.2954L6.91052 9.45795C6.85879 9.58194 6.73767 9.66275 6.60331 9.66287Z" fill="#FFBF41"/>
<path d="M18.1635 13.6613C18.5315 13.6613 18.8299 13.363 18.8299 12.9949C18.8299 12.6269 18.5315 12.3285 18.1635 12.3285C17.7954 12.3285 17.4971 12.6269 17.4971 12.9949C17.4971 13.363 17.7954 13.6613 18.1635 13.6613Z" fill="#D5557E"/>
<path d="M10.1666 4.33165C10.5346 4.33165 10.833 4.03329 10.833 3.66525C10.833 3.2972 10.5346 2.99884 10.1666 2.99884C9.79854 2.99884 9.50018 3.2972 9.50018 3.66525C9.50018 4.03329 9.79854 4.33165 10.1666 4.33165Z" fill="#DD95C1"/>
<path d="M7.16775 1.33281C6.79968 1.33281 6.50134 1.03447 6.50134 0.666407C6.50134 0.298342 6.79968 0 7.16775 0C7.53581 0 7.83416 0.298342 7.83416 0.666407C7.83416 1.03447 7.53581 1.33281 7.16775 1.33281Z" fill="#7FCCCB"/>
<path d="M16.4974 2.66563C16.3134 2.66563 16.1642 2.51643 16.1642 2.33242V1.99922C16.1642 1.81521 16.3134 1.66602 16.4974 1.66602C16.6815 1.66602 16.8307 1.81521 16.8307 1.99922V2.33242C16.8307 2.51643 16.6815 2.66563 16.4974 2.66563Z" fill="#2276BB"/>
<path d="M16.4974 0.999611C16.3134 0.999611 16.1642 0.850419 16.1642 0.666407V0.333204C16.1642 0.149192 16.3134 0 16.4974 0C16.6815 0 16.8307 0.149192 16.8307 0.333204V0.666407C16.8307 0.850419 16.6815 0.999611 16.4974 0.999611Z" fill="#2276BB"/>
<path d="M17.497 1.66601H17.1638C16.9798 1.66601 16.8306 1.51682 16.8306 1.33281C16.8306 1.1488 16.9798 0.999603 17.1638 0.999603H17.497C17.681 0.999603 17.8302 1.1488 17.8302 1.33281C17.8302 1.51682 17.6811 1.66601 17.497 1.66601Z" fill="#2276BB"/>
<path d="M15.831 1.66601H15.4978C15.3138 1.66601 15.1646 1.51682 15.1646 1.33281C15.1646 1.1488 15.3138 0.999603 15.4978 0.999603H15.831C16.015 0.999603 16.1642 1.1488 16.1642 1.33281C16.1642 1.51682 16.0151 1.66601 15.831 1.66601Z" fill="#2276BB"/>
<path d="M2.81543 9.66293C2.77811 9.52032 2.74479 9.37638 2.7138 9.22977L1.84747 12.7844L1.91411 13.5971C2.05935 15.3297 2.80364 16.9575 4.01896 18.2009L8.91472 16.3503C8.88807 16.342 8.86041 16.336 8.83376 16.327C5.86512 15.2139 3.62128 12.7293 2.81543 9.66293Z" fill="white"/>
<path d="M8.91471 16.3503C8.88805 16.3419 8.86039 16.3359 8.83374 16.327C8.51303 16.2055 8.1989 16.0673 7.89277 15.9128L3.48315 17.5811C3.65034 17.798 3.82931 18.0054 4.01928 18.2026L8.91471 16.3503Z" fill="#F6F6E7"/>
<path d="M14.165 3.99142V5.66444H12.492V3.99142H14.165Z" fill="#C9DA53"/>
<path d="M8.16735 9.9961C7.98334 9.99606 7.83419 9.84683 7.83423 9.66281C7.83427 9.56843 7.8743 9.47851 7.94444 9.41533L11.2765 6.4165C11.4156 6.29609 11.626 6.31129 11.7464 6.45045C11.8635 6.58573 11.8529 6.78931 11.7223 6.91164L8.39026 9.91047C8.32912 9.96557 8.24969 9.99606 8.16735 9.9961Z" fill="#FFBF41"/>
<path d="M17.8303 8.66328C17.6463 8.66328 17.4971 8.51408 17.4971 8.33007V7.99687C17.4971 7.81286 17.6463 7.66367 17.8303 7.66367C18.0143 7.66367 18.1635 7.81286 18.1635 7.99687V8.33007C18.1635 8.51408 18.0143 8.66328 17.8303 8.66328Z" fill="#FFDB43"/>
<path d="M19.0085 8.1751C18.9201 8.17535 18.8352 8.1402 18.7729 8.07747L18.5373 7.8419C18.4095 7.70953 18.4131 7.49857 18.5455 7.37075C18.6746 7.24605 18.8793 7.24605 19.0085 7.37075L19.2441 7.60632C19.3742 7.73648 19.3741 7.94744 19.244 8.07756C19.1815 8.13999 19.0968 8.1751 19.0085 8.1751Z" fill="#FFDB43"/>
<path d="M19.4963 6.99725H19.1631C18.9791 6.99725 18.8299 6.84806 18.8299 6.66404C18.8299 6.48003 18.9791 6.33084 19.1631 6.33084H19.4963C19.6803 6.33084 19.8295 6.48003 19.8295 6.66404C19.8295 6.84806 19.6804 6.99725 19.4963 6.99725Z" fill="#FFDB43"/>
<path d="M18.7729 6.055C18.5889 6.05496 18.4397 5.90577 18.4398 5.72172C18.4398 5.63338 18.4749 5.54866 18.5373 5.48623L18.7729 5.25066C18.9053 5.12279 19.1162 5.12646 19.244 5.25882C19.3687 5.38794 19.3687 5.59265 19.244 5.7218L19.0085 5.95737C18.946 6.01985 18.8613 6.055 18.7729 6.055Z" fill="#FFDB43"/>
<path d="M17.8303 5.66444C17.6463 5.66444 17.4971 5.51524 17.4971 5.33123V4.99803C17.4971 4.81402 17.6463 4.66483 17.8303 4.66483C18.0143 4.66483 18.1635 4.81402 18.1635 4.99803V5.33123C18.1635 5.51524 18.0143 5.66444 17.8303 5.66444Z" fill="#FFDB43"/>
<path d="M16.8876 6.05499C16.7993 6.05499 16.7145 6.01984 16.6521 5.95736L16.4165 5.72179C16.2887 5.58942 16.2923 5.37846 16.4246 5.25063C16.5538 5.12593 16.7585 5.12593 16.8876 5.25063L17.1232 5.48621C17.2533 5.61637 17.2533 5.82733 17.1231 5.95745C17.0607 6.01988 16.976 6.05499 16.8876 6.05499Z" fill="#FFDB43"/>
<path d="M1.83649 0.333191L2.35129 1.37645L3.50251 1.54372L2.6695 2.35574L2.86609 3.50229L1.83649 2.96083L0.80689 3.50229L1.00348 2.35574L0.170471 1.54372L1.32169 1.37645L1.83649 0.333191Z" fill="#FFDB43"/>
<path d="M19.7242 18.0483C19.5657 17.4867 19.2008 17.0057 18.7026 16.7019L18.5653 16.4959C17.7956 15.3449 16.5852 14.5622 15.2196 14.3325C15.0374 14.3065 14.8687 14.4331 14.8427 14.6153C14.8176 14.7913 14.9351 14.956 15.1097 14.9895C16.0946 15.1567 16.9922 15.6571 17.6523 16.407C17.0973 16.5068 16.6119 16.8401 16.3195 17.3223C15.9607 17.965 16.1908 18.7769 16.8335 19.1357C17.4762 19.4946 18.2881 19.2645 18.6469 18.6218C18.784 18.3572 18.858 18.0644 18.8632 17.7664C19.2177 18.2814 19.2461 18.9538 18.9362 19.4968C18.8423 19.655 18.8945 19.8595 19.0527 19.9533C19.211 20.0472 19.4154 19.995 19.5093 19.8368C19.5123 19.8317 19.5152 19.8266 19.5179 19.8213C19.8206 19.2816 19.8949 18.6431 19.7242 18.0483ZM18.0658 18.2966C17.888 18.6188 17.4826 18.7359 17.1604 18.558C16.8381 18.3802 16.7211 17.9748 16.899 17.6526C16.9 17.6508 16.901 17.649 16.9019 17.6472C17.0986 17.3252 17.4302 17.1094 17.8043 17.0601C17.8622 17.0585 17.9196 17.0718 17.9709 17.0987C18.2521 17.2556 18.2671 17.936 18.0658 18.2966Z" fill="#2BB3CE"/>
</g>
<defs>
<clipPath id="clip0">
<rect width="20" height="20" fill="white"/>
</clipPath>
</defs>
</svg>
