<svg width="20" height="20" viewBox="0 0 20 20" fill="none" xmlns="http://www.w3.org/2000/svg">
<path d="M11.9726 19.6086V17.8513C11.9726 17.4207 12.1448 17.0059 12.4501 16.7006L13.5029 15.6477C14.1135 15.0372 14.454 14.2113 14.454 13.3464V10.9589H4.69666V12.5479C4.69666 13.9374 5.17806 15.2877 6.05869 16.3601L6.36006 16.728C6.59881 17.0176 6.72797 17.3816 6.72797 17.7573V19.6086C6.72797 19.8239 6.90409 20 7.11936 20H11.5812C11.8004 20 11.9726 19.8239 11.9726 19.6086Z" fill="#F9C295"/>
<path d="M4.69666 11.8356L7.56554 11.5851C7.59294 12.1252 7.99215 12.5988 8.55184 12.6967L12.1761 13.3346V13.0098H14.454V10.9589H4.69666V11.8356Z" fill="#EBAC7D"/>
<path d="M14.8689 13.1898L8.65752 12.0939C8.34049 12.0391 8.12914 11.7338 8.18394 11.4168L9.84734 1.98433C9.90214 1.66731 10.2074 1.45596 10.5244 1.51075L16.7358 2.60664C17.0528 2.66144 17.2642 2.96672 17.2094 3.28374L15.546 12.7162C15.4912 13.0333 15.1859 13.2446 14.8689 13.1898Z" fill="#E1EBEF"/>
<path d="M16.7358 2.60665L16.137 2.50098L14.6927 10.6928C14.6379 11.0098 14.3327 11.2211 14.0156 11.1663L8.40312 10.1761L8.18394 11.4129C8.12914 11.7299 8.34049 12.0352 8.65752 12.09L14.8689 13.1859C15.1859 13.2407 15.4912 13.0293 15.546 12.7123L17.2094 3.27984C17.2642 2.96673 17.0528 2.66536 16.7358 2.60665Z" fill="#C4D3D6"/>
<path d="M14.1291 5.87085C13.5381 6.364 13.1154 6.81409 12.865 7.23288C12.6145 7.64775 12.3914 8.1683 12.2035 8.79061L12.0822 9.21723L11.5381 9.11938L11.6595 8.69276C11.8513 8.07437 12.1017 7.53425 12.4149 7.07241C12.728 6.61449 13.1194 6.18004 13.5929 5.773L11.91 5.47163L11.7847 5.92564L11.319 5.84345L11.4794 4.95108L14.2074 5.44032L14.1291 5.87085Z" fill="#757574"/>
<path d="M9.84741 1.98824L8.28186 10.8689L10.6419 10.6614C11.2016 10.6106 11.6204 10.1174 11.5695 9.5538L10.8728 1.57337L10.5245 1.51075C10.2075 1.45595 9.9022 1.6673 9.84741 1.98824Z" fill="#C4D3D6"/>
<path d="M10.6028 10.7084L4.32098 11.2564C4.00005 11.2838 3.71825 11.045 3.68693 10.7241L2.85328 1.18591C2.82588 0.864968 3.06463 0.583167 3.38556 0.551856L9.66735 0.00391103C9.98829 -0.0234862 10.2701 0.215261 10.3014 0.536201L11.1351 10.0783C11.1625 10.3953 10.9237 10.6771 10.6028 10.7084Z" fill="#E1EBEF"/>
<path d="M13.64 11.3659V13.2016C13.64 13.8474 13.3817 14.4697 12.9237 14.9276L11.6361 16.2153C11.3308 16.5205 11.1586 16.9354 11.1586 17.3659V20H11.5813C11.7965 20 11.9727 19.8239 11.9727 19.6086V17.8513C11.9727 17.4207 12.1449 17.0059 12.4502 16.7006L13.503 15.6477C14.1136 15.0372 14.4541 14.2113 14.4541 13.3464V11.362H13.64V11.3659Z" fill="#EBAC7D"/>
<path d="M9.57343 9.78082C9.57343 10.4305 10.1018 10.9589 10.7515 10.9589H12.094V13.3346H14.4501V10.227C14.4501 9.33073 13.7222 8.60274 12.8259 8.60274H10.7515C10.1018 8.59883 9.57343 9.1272 9.57343 9.78082Z" fill="#F9C295"/>
<path d="M12.8259 8.59882H12.0157C12.912 8.59882 13.64 9.3268 13.64 10.2231V13.3307H14.454V10.2231C14.454 9.33071 13.7261 8.59882 12.8259 8.59882Z" fill="#EBAC7D"/>
<path d="M9.57341 17.4834C9.40511 17.4834 9.26813 17.3464 9.26813 17.1781V16.1566C9.26813 15.4247 9.55384 14.7358 10.0705 14.2153L10.818 13.4677C10.9355 13.3503 11.1312 13.3503 11.2486 13.4677C11.366 13.5851 11.366 13.7808 11.2486 13.8982L10.501 14.6458C10.0979 15.0489 9.87479 15.5851 9.87479 16.1566V17.1781C9.8787 17.3464 9.74563 17.4834 9.57341 17.4834Z" fill="#EBAC7D"/>
<path d="M5.59291 7.73387L5.55378 7.29551L6.94712 5.44816C7.19761 5.11547 7.36199 4.85716 7.44418 4.66538C7.52637 4.4736 7.5616 4.28573 7.54203 4.09786C7.52246 3.86303 7.43636 3.67125 7.28371 3.52252C7.13107 3.37379 6.94321 3.30726 6.7162 3.32683C6.39135 3.35422 6.15651 3.4599 6.01953 3.63602C5.88254 3.81215 5.82383 4.05872 5.85123 4.36009L5.24067 4.41097L5.23284 4.3914C5.18587 3.98827 5.29155 3.63602 5.54595 3.33465C5.80035 3.03328 6.17608 2.86499 6.67315 2.82193C7.09976 2.78671 7.4481 2.88064 7.71815 3.10373C7.99213 3.33074 8.14477 3.63211 8.17608 4.01567C8.19956 4.27399 8.14477 4.53622 8.01561 4.80628C7.88645 5.07634 7.69467 5.36988 7.44418 5.69082L6.3209 7.14679L6.32873 7.16244L7.99995 7.01763L8.00387 6.4736L8.54399 6.42663L8.634 7.46381L5.59291 7.73387Z" fill="#757574"/>
</svg>
