<svg width="20" height="20" viewBox="0 0 20 20" fill="none" xmlns="http://www.w3.org/2000/svg">
<g clip-path="url(#clip0)">
<path d="M10.7804 15.5559L19.6804 6.65567C19.8864 6.44982 19.9999 6.17502 19.9999 5.88202C19.9999 5.58901 19.8864 5.31422 19.6804 5.10837L19.0252 4.45292C18.5982 4.02642 17.9042 4.02642 17.4778 4.45292L10.0041 11.9267L2.52206 4.44463C2.31604 4.23878 2.04141 4.12512 1.74857 4.12512C1.4554 4.12512 1.18077 4.23878 0.974592 4.44463L0.319477 5.10007C0.113462 5.30609 -3.24886e-05 5.58072 -3.25014e-05 5.87372C-3.25142e-05 6.16673 0.113462 6.44152 0.319477 6.64738L9.22768 15.5559C9.43435 15.7623 9.71028 15.8756 10.0036 15.8749C10.2981 15.8756 10.5739 15.7623 10.7804 15.5559Z" fill="white"/>
</g>
<defs>
<clipPath id="clip0">
<rect width="20" height="20" fill="white"/>
</clipPath>
</defs>
</svg>
