<svg width="20" height="20" viewBox="0 0 20 20" fill="none" xmlns="http://www.w3.org/2000/svg">
<g clip-path="url(#clip0)">
<path d="M15.3675 1.66301C15.0152 1.66301 14.7306 1.94855 14.7306 2.30084C14.7306 2.65312 15.0118 2.93867 15.3641 2.93867C16.7559 2.93867 17.8838 4.07081 17.8838 5.46243V6.13544H2.11623V5.46243C2.11623 4.07081 3.24424 2.93867 4.63601 2.93867C4.9883 2.93867 5.27178 2.65312 5.27178 2.30084C5.27178 1.94855 4.98637 1.66301 4.63409 1.66301C2.53895 1.66301 0.834656 3.36746 0.834656 5.46245V16.1999C0.834656 18.2949 2.53675 20 4.6319 20H15.3693C17.4645 20 19.1654 18.2949 19.1654 16.1999V5.46243C19.1654 3.36746 17.4627 1.66301 15.3675 1.66301ZM15.3693 18.7184H4.63186C3.24008 18.7184 2.11622 17.5915 2.11622 16.1999V7.41705H17.8838V16.1999C17.8838 17.5915 16.7611 18.7184 15.3693 18.7184Z" fill="white"/>
<path d="M7.98836 2.93144H11.9748C12.3271 2.93144 12.6126 2.65263 12.6126 2.30035C12.6126 1.94807 12.3271 1.66927 11.9748 1.66927H7.98836C7.63607 1.66927 7.35052 1.94807 7.35052 2.30035C7.35052 2.65263 7.63607 2.93144 7.98836 2.93144Z" fill="white"/>
<path d="M6.29119 4.96021C6.64347 4.96021 6.93199 4.67467 6.93199 4.32238V0.637828C6.93199 0.285544 6.64347 0 6.29119 0C5.93891 0 5.65039 0.285544 5.65039 0.637828V4.32236C5.65039 4.67467 5.93891 4.96021 6.29119 4.96021Z" fill="white"/>
<path d="M13.7089 4.96021C14.0611 4.96021 14.3497 4.67467 14.3497 4.32238V0.637828C14.3497 0.285544 14.0611 0 13.7089 0C13.3566 0 13.0681 0.285544 13.0681 0.637828V4.32236C13.0681 4.67467 13.3566 4.96021 13.7089 4.96021Z" fill="white"/>
</g>
<defs>
<clipPath id="clip0">
<rect width="20" height="20" fill="white"/>
</clipPath>
</defs>
</svg>
