<svg width="15" height="13" viewBox="0 0 15 13" fill="none" xmlns="http://www.w3.org/2000/svg">
<path d="M13.6797 0H1.32031C0.868047 0 0.5 0.368047 0.5 0.820312V8.96875C0.5 9.42102 0.868047 9.78906 1.32031 9.78906H13.6797C14.132 9.78906 14.5 9.42102 14.5 8.96875V0.820312C14.5 0.368047 14.132 0 13.6797 0Z" fill="white"/>
<path d="M11.875 11.8125H9.66016V10.6094H5.33984V11.8125H3.125C2.89859 11.8125 2.71484 11.9963 2.71484 12.2227C2.71484 12.4491 2.89859 12.6328 3.125 12.6328H11.875C12.1014 12.6328 12.2852 12.4491 12.2852 12.2227C12.2852 11.9963 12.1014 11.8125 11.875 11.8125Z" fill="white"/>
</svg>
