<svg width="10" height="11" viewBox="0 0 10 11" fill="none" xmlns="http://www.w3.org/2000/svg">
<g clip-path="url(#clip0)">
<path d="M7.02736 8.88477L5 8.29883L2.97264 8.88477C2.95508 8.91992 2.94922 8.95508 2.94922 8.99609V10.207H7.05078V8.99609C7.05078 8.95508 7.04492 8.91992 7.02736 8.88477Z" fill="#646D73"/>
<path d="M7.05078 10.207V8.99609C7.05078 8.95508 7.04492 8.91992 7.02736 8.88477L5 8.29883V10.207H7.05078Z" fill="#474F54"/>
<path d="M9.70703 1.08594H8.21006C8.21264 0.986973 8.22266 0.89375 8.22266 0.792969C8.22266 0.628887 8.09377 0.5 7.92969 0.5H2.07031C1.90623 0.5 1.77734 0.628887 1.77734 0.792969C1.77734 0.89375 1.78736 0.986973 1.7899 1.08594H0.292969C0.131035 1.08594 0 1.21697 0 1.37891V2.12105C0 3.75688 1.31039 5.08572 2.92525 5.17127C3.26168 5.63447 3.66096 5.97822 4.11523 6.17188C4.04492 7.5957 3.23047 8.58594 3.03713 8.79104C3.00781 8.81445 2.98438 8.84961 2.97266 8.88477H7.02736C7.01562 8.84961 6.99221 8.81445 6.96289 8.79104C6.76367 8.58594 5.95508 7.60156 5.88477 6.17188C6.33914 5.97818 6.74082 5.63436 7.07752 5.17098C8.691 5.08404 10 3.75596 10 2.12105V1.37891C10 1.21697 9.86897 1.08594 9.70703 1.08594ZM0.585938 2.12105V1.67188H1.81504C1.89107 2.6402 2.10105 3.66574 2.54238 4.53727C1.43613 4.28814 0.585938 3.30162 0.585938 2.12105ZM9.41406 2.12105C9.41406 3.30102 8.56463 4.28707 7.4592 4.53676C7.89703 3.66525 8.10818 2.64963 8.18496 1.67188H9.41406V2.12105Z" fill="#FED843"/>
<path d="M9.70703 1.08594H8.21006C8.21264 0.986973 8.22266 0.89375 8.22266 0.792969C8.22266 0.628887 8.09377 0.5 7.92969 0.5H5V8.88477H7.02736C7.01562 8.84961 6.99221 8.81445 6.96289 8.79104C6.76367 8.58594 5.95508 7.60156 5.88477 6.17188C6.33914 5.97818 6.74082 5.63436 7.07752 5.17098C8.691 5.08404 10 3.75596 10 2.12105V1.37891C10 1.21697 9.86896 1.08594 9.70703 1.08594ZM9.41406 2.12105C9.41406 3.30102 8.56463 4.28707 7.4592 4.53676C7.89707 3.66525 8.10822 2.64963 8.18496 1.67188H9.41406V2.12105Z" fill="#FABE2C"/>
<path d="M5.46743 4.22652L4.99993 3.98361L4.53243 4.22652C4.43458 4.27688 4.31499 4.26857 4.22516 4.20363C4.13532 4.1384 4.09013 4.02797 4.10843 3.91867L4.19427 3.39824L3.81948 3.02832C3.7379 2.94879 3.71296 2.83088 3.74624 2.72907C3.78057 2.62377 3.87155 2.54653 3.98141 2.52995L4.50212 2.45155L4.73786 1.98034C4.83743 1.78178 5.16243 1.78178 5.262 1.98034L5.49774 2.45155L6.01845 2.52995C6.12831 2.54655 6.21929 2.62379 6.25362 2.72907C6.28796 2.83463 6.25991 2.95051 6.18038 3.02832L5.80559 3.39824L5.89143 3.91867C5.90975 4.02797 5.86454 4.1384 5.7747 4.20363C5.68546 4.2683 5.56608 4.27785 5.46743 4.22652Z" fill="#FABE2C"/>
<path d="M5.4675 4.22654C5.56617 4.27787 5.68555 4.26832 5.77476 4.20365C5.86461 4.13841 5.9098 4.02798 5.8915 3.91869L5.80566 3.39826L6.18045 3.02833C6.25998 2.95052 6.28802 2.83464 6.25369 2.72908C6.21935 2.62378 6.12838 2.54654 6.01851 2.52996L5.49781 2.45156L5.26207 1.98035C5.21228 1.88107 5.10615 1.83142 5 1.83142V3.98363L5.4675 4.22654Z" fill="#FF9100"/>
<path d="M7.34375 10.5H2.65625C2.49432 10.5 2.36328 10.369 2.36328 10.207C2.36328 10.0451 2.49432 9.91406 2.65625 9.91406H7.34375C7.50568 9.91406 7.63672 10.0451 7.63672 10.207C7.63672 10.369 7.50568 10.5 7.34375 10.5Z" fill="#474F54"/>
<path d="M7.34375 9.91406H5V10.5H7.34375C7.50568 10.5 7.63672 10.369 7.63672 10.207C7.63672 10.0451 7.50568 9.91406 7.34375 9.91406Z" fill="#32393F"/>
</g>
<defs>
<clipPath id="clip0">
<rect width="10" height="10" fill="white" transform="translate(0 0.5)"/>
</clipPath>
</defs>
</svg>
