<svg width="20" height="21" viewBox="0 0 20 21" fill="none" xmlns="http://www.w3.org/2000/svg">
<g clip-path="url(#clip0)">
<path d="M5.91504 9.14648L1.54736 17.3753L5.5136 17.0089L7.43325 20.4993L11.8009 12.2704L5.91504 9.14648Z" fill="#E95454"/>
<path d="M6.4154 18.1033C6.53796 17.8401 6.40978 17.5256 6.15341 17.3893L5.90204 17.2554C5.65067 17.1123 5.555 16.794 5.69194 16.5364C5.83076 16.2744 6.15716 16.1743 6.41916 16.3131L7.12949 16.6902C7.34897 16.8065 7.6241 16.7221 7.73727 16.5013L7.75478 16.4676C7.88484 16.2594 7.80793 15.9842 7.59158 15.8698L5.46683 14.7424C5.20796 14.6048 5.08103 14.2916 5.20171 14.0277C5.3349 13.7469 5.67131 13.6363 5.94206 13.7801L7.91298 14.8262C8.13246 14.9425 8.40759 14.8581 8.52389 14.6386L8.53515 14.6098L8.53828 14.6036C8.66396 14.3735 8.57579 14.0846 8.34381 13.9614L7.23829 13.3749C6.97942 13.2373 6.85248 12.924 6.97504 12.657C7.10698 12.3794 7.44464 12.2656 7.71539 12.4094L8.93659 13.0579C9.16482 13.1792 9.43745 13.0779 9.55563 12.8478C9.5575 12.8446 9.5575 12.8446 9.55875 12.8415C9.56063 12.8384 9.56063 12.8384 9.56188 12.8353C9.68631 12.6083 9.61753 12.3256 9.38867 12.205L8.07118 11.5059C7.81544 11.3702 7.6885 11.0569 7.80918 10.793C7.94237 10.5123 8.27878 10.4016 8.54953 10.5454L11.7998 12.2706L7.43213 20.4995L6.22844 18.3116C6.30598 18.259 6.37351 18.194 6.4154 18.1033Z" fill="#ED6362"/>
<path d="M14.0856 9.14648L18.4533 17.3753L14.487 17.0089L12.5674 20.4993L8.19971 12.2704L14.0856 9.14648Z" fill="#ED6362"/>
<path d="M13.5847 18.1032C13.4622 17.84 13.5904 17.5254 13.8467 17.3891L14.0981 17.2553C14.3495 17.1121 14.4451 16.7938 14.3082 16.5362C14.1694 16.2742 13.843 16.1742 13.581 16.313L12.8706 16.69C12.6512 16.8064 12.376 16.7219 12.2629 16.5012L12.2454 16.4674C12.1153 16.2592 12.1922 15.9841 12.4086 15.8697L14.5339 14.7416C14.7928 14.6041 14.9197 14.2908 14.7991 14.0269C14.6659 13.7462 14.3295 13.6355 14.0587 13.7793L12.0878 14.8254C11.8683 14.9417 11.5932 14.8573 11.4769 14.6378L11.4656 14.6091L11.4625 14.6028C11.3368 14.3727 11.425 14.0838 11.657 13.9606L12.7625 13.3741C13.0213 13.2366 13.1483 12.9233 13.0257 12.6563C12.8938 12.3787 12.5561 12.2648 12.2854 12.4087L11.0629 13.0583C10.8347 13.1797 10.5621 13.0784 10.4439 12.8482C10.442 12.8451 10.442 12.8451 10.4408 12.842C10.4389 12.8389 10.4389 12.8389 10.4376 12.8357C10.3132 12.6088 10.382 12.3261 10.6108 12.2054L11.9283 11.5064C12.1841 11.3707 12.311 11.0574 12.1903 10.7935C12.0571 10.5128 11.7207 10.4021 11.45 10.5459L8.19971 12.2711L12.5674 20.5L13.7711 18.3121C13.6942 18.2589 13.6266 18.1939 13.5847 18.1032Z" fill="#E95454"/>
<path d="M9.99994 15.0956C14.0304 15.0956 17.2977 11.8283 17.2977 7.7978C17.2977 3.76733 14.0304 0.5 9.99994 0.5C5.96948 0.5 2.70215 3.76733 2.70215 7.7978C2.70215 11.8283 5.96948 15.0956 9.99994 15.0956Z" fill="#FFCC5B"/>
<path d="M10.99 6.96026H6.36534C6.0058 6.96026 5.71066 6.66512 5.71066 6.30557L5.71566 6.26055V6.25055C5.71066 5.871 6.02018 5.56085 6.40036 5.56085H9.60561C10.0302 5.56085 10.4054 5.24633 10.4304 4.82113C10.4504 4.37655 10.0958 4.00137 9.65063 4.00137H6.25529C5.88074 4.00137 5.60061 3.68685 5.60561 3.31167C5.60561 3.30667 5.60561 3.30667 5.60561 3.30167C5.60561 3.29666 5.60561 3.29666 5.60561 3.29166C5.60061 2.91711 5.88011 2.60196 6.25529 2.60196H9.8082C10.2278 2.60196 10.603 2.28744 10.628 1.86724C10.648 1.41766 10.2934 1.04749 9.84822 1.04749H7.24638C4.59326 2.14112 2.72363 4.74985 2.72363 7.79752C2.72363 10.8452 4.59326 13.4533 7.247 14.5457H10.5504C10.97 14.5457 11.3452 14.2312 11.3702 13.811C11.3902 13.3614 11.0357 12.9918 10.5904 12.9918L6.83243 12.9912C6.3891 12.9912 6.03206 12.6204 6.05582 12.1714C6.0777 11.7513 6.45538 11.4355 6.8762 11.4355H8.33314C8.75208 11.4236 9.09037 11.0803 9.09037 10.6582C9.09037 10.2287 8.74083 9.8785 8.31063 9.8785H6.10209C5.74255 9.8785 5.44741 9.58399 5.45241 9.22382V9.16879C5.4274 8.81425 5.71253 8.51411 6.06708 8.51411H10.945C11.3696 8.51411 11.7447 8.19959 11.7697 7.77939C11.7898 7.33043 11.4346 6.96026 10.99 6.96026Z" fill="#FDBC4B"/>
<path d="M9.99984 13.0065C7.12725 13.0065 4.79053 10.6692 4.79053 7.79719C4.79053 4.92522 7.12725 2.5885 9.99984 2.5885C12.8724 2.5885 15.2092 4.92585 15.2092 7.79782C15.2092 10.6698 12.8724 13.0065 9.99984 13.0065Z" fill="#FFDB70"/>
<path opacity="0.2" d="M15.209 7.79783C15.209 5.02653 13.0317 2.75984 10.2986 2.60352H9.81335C9.4932 2.60352 9.20745 2.84363 9.18806 3.16378C9.17306 3.50644 9.44318 3.78907 9.78271 3.78907L12.649 3.7897C12.9873 3.7897 13.2593 4.07233 13.2412 4.41499C13.2243 4.73577 12.9367 4.9765 12.6153 4.9765H11.5041C11.1846 4.98588 10.9264 5.24726 10.9264 5.56928C10.9264 5.89693 11.1934 6.16393 11.521 6.16393H13.2056C13.4801 6.16393 13.7045 6.38904 13.7008 6.66292V6.70419C13.7195 6.97494 13.5026 7.20317 13.2318 7.20317H9.51196C9.18806 7.20317 8.9023 7.44328 8.88292 7.76343C8.86791 8.1061 9.13804 8.38873 9.47757 8.38873H13.0042C13.2787 8.38873 13.5032 8.61383 13.5032 8.88771L13.4994 8.9221V8.92961C13.5032 9.21912 13.2668 9.45548 12.9773 9.45548H10.5324C10.2085 9.45548 9.92278 9.69559 9.90339 10.0195C9.88839 10.3584 10.1585 10.6448 10.498 10.6448H13.0874C13.3731 10.6448 13.5864 10.8849 13.5826 11.1707C13.5826 11.1744 13.5826 11.1744 13.5826 11.1782C13.5826 11.1819 13.5826 11.1819 13.5826 11.1857C13.5864 11.4714 13.3731 11.7115 13.0874 11.7115H10.378C10.0578 11.7115 9.77208 11.9516 9.7527 12.2718C9.73769 12.6151 10.0078 12.8971 10.3474 12.8971H11.0621C13.4275 12.4044 15.209 10.3053 15.209 7.79783Z" fill="white"/>
<path d="M13.6368 6.64398H11.1031L10.3196 4.23409C10.2189 3.92457 9.78062 3.92457 9.67995 4.23409L8.89708 6.64398H6.36339C6.03761 6.64398 5.90193 7.06106 6.1658 7.2524L8.21551 8.74185L7.43264 11.1517C7.33197 11.4613 7.68651 11.7189 7.95039 11.5275L10.0001 10.0381L12.0498 11.5275C12.3137 11.7189 12.6682 11.4613 12.5676 11.1517L11.7847 8.74185L13.8344 7.2524C14.0976 7.06106 13.9626 6.64398 13.6368 6.64398Z" fill="#EC9922"/>
</g>
<defs>
<clipPath id="clip0">
<rect width="20" height="20" fill="white" transform="translate(0 0.5)"/>
</clipPath>
</defs>
</svg>
