<svg width="13" height="20" viewBox="0 0 13 20" fill="none" xmlns="http://www.w3.org/2000/svg">
<g clip-path="url(#clip0)">
<path d="M8.00363 20C7.80478 20 7.61407 19.921 7.47346 19.7803C7.33286 19.6397 7.25386 19.4489 7.25386 19.25C7.25386 19.0511 7.33286 18.8603 7.47346 18.7197C7.61407 18.579 7.80478 18.5 8.00363 18.5H9.90305C10.0986 18.5011 10.2862 18.5776 10.4268 18.7136C10.5673 18.8496 10.6501 19.0345 10.6578 19.23C10.6625 19.3286 10.6473 19.4271 10.6131 19.5197C10.579 19.6123 10.5265 19.697 10.4588 19.7689C10.3912 19.8408 10.3098 19.8983 10.2194 19.938C10.1291 19.9777 10.0317 19.9988 9.93304 20H8.00363ZM4.73963 20H3.42504C3.17015 19.9953 2.91675 19.9601 2.67027 19.895C2.47672 19.8486 2.30953 19.7272 2.20548 19.5574C2.15396 19.4734 2.11949 19.38 2.10404 19.2827C2.08859 19.1853 2.09247 19.0859 2.11544 18.99C2.13842 18.8941 2.18004 18.8037 2.23794 18.724C2.29584 18.6442 2.36888 18.5766 2.45289 18.5251C2.62256 18.421 2.82662 18.3886 3.02016 18.435C3.15278 18.467 3.28862 18.4838 3.42504 18.485H4.73963C4.93849 18.485 5.12919 18.564 5.2698 18.7047C5.41041 18.8453 5.4894 19.0361 5.4894 19.235C5.4894 19.4339 5.41041 19.6247 5.2698 19.7653C5.12919 19.906 4.93849 19.985 4.73963 19.985V20ZM12.2312 16.725C12.0324 16.725 11.8417 16.646 11.7011 16.5053C11.5605 16.3647 11.4815 16.1739 11.4815 15.975V14.075C11.4815 13.8761 11.5605 13.6853 11.7011 13.5447C11.8417 13.404 12.0324 13.325 12.2312 13.325C12.4301 13.325 12.6208 13.404 12.7614 13.5447C12.902 13.6853 12.981 13.8761 12.981 14.075V15.975C12.9771 16.1713 12.8964 16.3582 12.7562 16.4957C12.616 16.6331 12.4275 16.71 12.2312 16.71V16.725ZM0.744769 16.165C0.645454 16.1644 0.547257 16.144 0.45588 16.1051C0.364502 16.0661 0.281766 16.0094 0.212475 15.9383C0.143184 15.8671 0.0887191 15.7829 0.0522438 15.6905C0.0157684 15.5981 -0.0019907 15.4993 -2.29479e-06 15.4V13.5C-2.29479e-06 13.3011 0.078991 13.1103 0.2196 12.9697C0.360209 12.829 0.550916 12.75 0.749767 12.75C0.948618 12.75 1.13933 12.829 1.27993 12.9697C1.42054 13.1103 1.49954 13.3011 1.49954 13.5V15.4C1.49954 15.598 1.42123 15.7881 1.2817 15.9286C1.14217 16.0691 0.952749 16.1487 0.754766 16.15L0.744769 16.165ZM12.2312 10.22C12.0324 10.22 11.8417 10.141 11.7011 10.0003C11.5605 9.85968 11.4815 9.66891 11.4815 9.47V7.57C11.4815 7.37109 11.5605 7.18033 11.7011 7.03967C11.8417 6.89902 12.0324 6.82 12.2312 6.82C12.4301 6.82 12.6208 6.89902 12.7614 7.03967C12.902 7.18033 12.981 7.37109 12.981 7.57V9.47C12.9771 9.6663 12.8964 9.85324 12.7562 9.99066C12.616 10.1281 12.4275 10.205 12.2312 10.205V10.22ZM0.744771 9.665C0.645456 9.66436 0.547259 9.64398 0.455882 9.60506C0.364504 9.56614 0.281768 9.50945 0.212477 9.43827C0.143186 9.3671 0.088721 9.28287 0.0522457 9.19046C0.0157703 9.09806 -0.00198879 8.99933 -3.87445e-07 8.9V7C-3.87445e-07 6.80109 0.0789929 6.61032 0.219602 6.46967C0.360211 6.32902 0.550918 6.25 0.749769 6.25C0.94862 6.25 1.13933 6.32902 1.27994 6.46967C1.42055 6.61032 1.49954 6.80109 1.49954 7V8.9C1.49954 9.09805 1.42124 9.28806 1.28171 9.42857C1.14218 9.56908 0.952751 9.64868 0.754767 9.65L0.744771 9.665ZM12.2262 3.75C12.039 3.74946 11.8588 3.67887 11.7209 3.5521C11.5831 3.42534 11.4977 3.25159 11.4815 3.065C11.4367 2.6191 11.2197 2.20828 10.8767 1.92C10.7888 1.86175 10.7143 1.78563 10.6578 1.6966C10.6014 1.60758 10.5643 1.50765 10.5491 1.40335C10.5339 1.29904 10.5408 1.19269 10.5694 1.09123C10.598 0.989778 10.6477 0.895499 10.7152 0.814544C10.7827 0.73359 10.8665 0.667779 10.9611 0.621404C11.0558 0.575028 11.1591 0.549131 11.2645 0.5454C11.3698 0.541669 11.4747 0.560189 11.5724 0.599751C11.6701 0.639313 11.7583 0.69903 11.8314 0.775005C12.4749 1.3101 12.8868 2.07325 12.981 2.905C12.9914 3.0032 12.9823 3.10248 12.9542 3.19715C12.9261 3.29182 12.8796 3.38001 12.8174 3.45666C12.7552 3.53331 12.6784 3.59692 12.5916 3.64383C12.5047 3.69073 12.4094 3.72002 12.3112 3.73L12.2262 3.75ZM0.884725 3.19C0.801353 3.19137 0.718407 3.17782 0.6398 3.15C0.452557 3.08522 0.298559 2.94893 0.211456 2.77093C0.124353 2.59292 0.111226 2.38766 0.174943 2.2C0.444635 1.41151 1.00639 0.75653 1.74446 0.370002C1.92078 0.277839 2.12647 0.259513 2.31629 0.319056C2.50611 0.378599 2.66452 0.511133 2.75665 0.687502C2.84878 0.863871 2.8671 1.06963 2.80758 1.25951C2.74805 1.44939 2.61556 1.60784 2.43925 1.7C2.0386 1.91104 1.73567 2.26963 1.59451 2.7C1.54039 2.84442 1.44336 2.96879 1.31647 3.05639C1.18957 3.14399 1.0389 3.19062 0.884725 3.19ZM7.5 1.485H5.60058C5.40173 1.485 5.21102 1.40598 5.07042 1.26533C4.92981 1.12468 4.85081 0.933913 4.85081 0.735001C4.85081 0.536088 4.92981 0.345323 5.07042 0.204671C5.21102 0.0640182 5.40173 -0.0149994 5.60058 -0.0149994H7.5C7.69885 -0.0149994 7.88956 0.0640182 8.03017 0.204671C8.17077 0.345323 8.24977 0.536088 8.24977 0.735001C8.24977 0.933913 8.17077 1.12468 8.03017 1.26533C7.88956 1.40598 7.69885 1.485 7.5 1.485Z" fill="white"/>
</g>
<defs>
<clipPath id="clip0">
<rect width="13" height="20" fill="white"/>
</clipPath>
</defs>
</svg>
