<svg width="20" height="20" viewBox="0 0 20 20" fill="none" xmlns="http://www.w3.org/2000/svg">
<g clip-path="url(#clip0)">
<path d="M19.696 18.2168L14.7656 13.2662C16.0333 11.8113 16.7279 9.98069 16.7279 8.07499C16.7279 3.62251 12.9758 0 8.36397 0C3.75218 0 6.10352e-05 3.62251 6.10352e-05 8.07499C6.10352e-05 12.5275 3.75218 16.15 8.36397 16.15C10.0953 16.15 11.7452 15.6458 13.1558 14.6888L18.1236 19.677C18.3312 19.8852 18.6105 20 18.9098 20C19.193 20 19.4618 19.8957 19.6658 19.7061C20.0993 19.3034 20.1131 18.6357 19.696 18.2168ZM8.36397 2.10652C11.7728 2.10652 14.546 4.78391 14.546 8.07499C14.546 11.3661 11.7728 14.0435 8.36397 14.0435C4.95513 14.0435 2.18195 11.3661 2.18195 8.07499C2.18195 4.78391 4.95513 2.10652 8.36397 2.10652Z" fill="white"/>
</g>
<defs>
<clipPath id="clip0">
<rect width="20" height="20" fill="white"/>
</clipPath>
</defs>
</svg>
