<svg width="20" height="20" viewBox="0 0 20 20" fill="none" xmlns="http://www.w3.org/2000/svg">
<path d="M10 20C15.5228 20 20 15.5228 20 10C20 4.47715 15.5228 0 10 0C4.47715 0 0 4.47715 0 10C0 15.5228 4.47715 20 10 20Z" fill="#FFD93B"/>
<path d="M16.3356 13.2332C15.3293 15.7488 12.8731 17.5238 10.0012 17.5238C7.12622 17.5238 4.66997 15.7488 3.66372 13.2332C3.5231 12.8801 3.7731 12.4926 4.15435 12.4926H15.845C16.2262 12.4926 16.4762 12.8801 16.3356 13.2332Z" fill="#3E4347"/>
<path d="M16.3356 13.2332C15.3293 15.7488 12.8731 17.5238 10.0012 17.5238C7.12622 17.5238 4.66997 15.7488 3.66372 13.2332C3.5231 12.8801 3.7731 12.4926 4.15435 12.4926H15.845C16.2262 12.4926 16.4762 12.8801 16.3356 13.2332Z" fill="#3E4347"/>
<path d="M20 10.0001C20 15.5251 15.5218 20.0001 9.99995 20.0001C6.8562 20.0001 4.04995 18.5501 2.21558 16.2782C3.9312 17.6657 6.11558 18.4938 8.4937 18.4938C14.0156 18.4938 18.4937 14.0188 18.4937 8.49381C18.4937 6.11568 17.6656 3.93131 16.2781 2.21568C18.5468 4.05006 20 6.85631 20 10.0001Z" fill="#F4C534"/>
<path d="M4.55688 9.67753C4.43938 9.44691 4.53063 9.16441 4.76126 9.04691L7.04938 7.87879L5.23688 6.95316C5.00626 6.83566 4.91501 6.55316 5.03251 6.32254C5.15001 6.09191 5.43251 6.00066 5.66313 6.11816L8.29313 7.46129C8.45 7.54129 8.54875 7.70254 8.54875 7.87879C8.54875 8.05504 8.45 8.21629 8.29313 8.29628L5.18751 9.88191C4.95438 10.0007 4.67313 9.90566 4.55688 9.67753Z" fill="#3E4347"/>
<path d="M14.8124 9.88191L11.7068 8.29629C11.5499 8.21629 11.4512 8.05504 11.4512 7.87879C11.4512 7.70254 11.5499 7.54129 11.7068 7.46129L14.3368 6.11816C14.568 6.00066 14.8499 6.09191 14.9674 6.32254C15.0849 6.55316 14.9937 6.83566 14.763 6.95316L12.9505 7.87879L15.238 9.04692C15.4687 9.16442 15.5605 9.44692 15.4424 9.67754C15.3243 9.90942 15.0418 9.99879 14.8124 9.88191Z" fill="#3E4347"/>
<path d="M15.342 13.3519L15.327 13.3832C15.0245 13.9988 14.4182 14.4038 13.7345 14.4582C11.2445 14.6563 8.75445 14.6526 6.26445 14.4463C5.57695 14.3895 4.9682 13.9819 4.6632 13.3632L4.6582 13.3526H15.342V13.3519V13.3519Z" fill="white"/>
<path d="M10.2706 15.6643C10.0063 15.795 9.6919 15.8725 9.3319 15.8725C9.26127 15.8725 9.19065 15.8687 9.12377 15.8618C8.67564 15.8231 8.22377 15.9781 7.96314 16.345C7.80627 16.5687 7.68814 16.82 7.61127 17.0887C8.35564 17.3675 9.16002 17.5231 10.0019 17.5231C10.855 17.5231 11.6694 17.3631 12.4219 17.0775C12.2769 16.5881 11.9938 16.1575 11.6075 15.8437C11.23 15.5375 10.7044 15.4493 10.2706 15.6643Z" fill="#E24B4B"/>
<g opacity="0.2">
<path opacity="0.2" d="M11.3167 16.0195C11.1494 15.8822 10.9489 15.8499 10.8687 15.9475C10.7885 16.0452 10.8591 16.2357 11.0263 16.373C11.1935 16.5104 11.3941 16.5426 11.4743 16.445C11.5545 16.3474 11.4839 16.1569 11.3167 16.0195Z" fill="white"/>
</g>
</svg>
