<svg width="20" height="20" viewBox="0 0 20 20" fill="none" xmlns="http://www.w3.org/2000/svg">
<g clip-path="url(#clip0)">
<path d="M19.948 7.67188C19.8171 7.2669 19.4579 6.97926 19.0329 6.94096L13.2603 6.41681L10.9777 1.07411C10.8094 0.682563 10.4261 0.429108 10.0002 0.429108C9.57434 0.429108 9.19103 0.682563 9.02272 1.07503L6.7401 6.41681L0.966636 6.94096C0.542431 6.98018 0.184145 7.2669 0.0524585 7.67188C-0.0792282 8.07686 0.0423875 8.52105 0.363288 8.80106L4.72665 12.6278L3.44 18.2955C3.34585 18.7122 3.50759 19.143 3.85337 19.3929C4.03922 19.5272 4.25667 19.5956 4.47594 19.5956C4.665 19.5956 4.85254 19.5446 5.02085 19.4439L10.0002 16.4679L14.9778 19.4439C15.342 19.663 15.8012 19.643 16.1462 19.3929C16.4921 19.1422 16.6537 18.7113 16.5595 18.2955L15.2729 12.6278L19.6362 8.80182C19.9571 8.52105 20.0797 8.07762 19.948 7.67188V7.67188Z" fill="#FFC107"/>
</g>
<defs>
<clipPath id="clip0">
<rect width="20" height="20" fill="white"/>
</clipPath>
</defs>
</svg>
