<svg width="20" height="20" viewBox="0 0 20 20" fill="none" xmlns="http://www.w3.org/2000/svg">
<g clip-path="url(#clip0)">
<path d="M9.2865 14.0281L5.97194 10.7135C5.28655 10.0281 4.17143 10.0281 3.48604 10.7135C3.25726 10.9423 3.25726 11.3133 3.48604 11.5421L8.45787 16.5139C8.68666 16.7428 9.05771 16.7428 9.2865 16.5139C9.97193 15.8286 9.97193 14.7134 9.2865 14.0281Z" fill="white"/>
<path d="M4.31495 14.0281L2.65771 15.6853L4.31495 17.3425L5.97219 15.6853L4.31495 14.0281Z" fill="white"/>
<path d="M3.48624 18.1715L1.82875 16.514C1.15519 15.8403 0.000234375 16.3188 0 17.2715V18.2425C0 18.7272 0.197031 19.1662 0.515468 19.4847C0.833905 19.8031 1.27289 20.0001 1.75761 20.0001H2.72867C3.68097 20 4.15964 18.8448 3.48624 18.1715Z" fill="white"/>
<path d="M19.3321 0.00526582L13.5316 0.833936C13.3863 0.854561 13.254 0.929405 13.161 1.04272L6.26001 9.34408L8.04368 11.1277L13.4298 5.74158C13.6589 5.51256 14.0295 5.51256 14.2585 5.74158C14.4875 5.97061 14.4875 6.34123 14.2585 6.57021L8.87231 11.9564L10.656 13.74L18.9573 6.83912C19.0706 6.74607 19.1455 6.61373 19.1661 6.4685L19.9947 0.667999C20.0474 0.303039 19.697 -0.0473513 19.3321 0.00526582Z" fill="white"/>
</g>
<defs>
<clipPath id="clip0">
<rect width="20" height="20" fill="white"/>
</clipPath>
</defs>
</svg>
