<svg width="19" height="20" viewBox="0 0 19 20" fill="none" xmlns="http://www.w3.org/2000/svg">
<path d="M17.0239 1.34492V18.6551C16.3428 18.6551 15.791 19.257 15.791 20H2.54232C2.54232 19.257 1.99053 18.6551 1.30948 18.6551V1.34492C1.99053 1.34492 2.54232 0.742969 2.54232 0H15.791C15.791 0.742969 16.3428 1.34492 17.0239 1.34492V1.34492Z" fill="#DC4747"/>
<path d="M17.0239 1.34492V18.6551C16.3428 18.6551 15.791 19.257 15.791 20H9.16666V0H15.791C15.791 0.742969 16.3428 1.34492 17.0239 1.34492Z" fill="#B82A2A"/>
<path d="M8.62955 11.5539H9.70377V16.9336H8.62955V11.5539Z" fill="#222222"/>
<path d="M9.16666 11.5539H9.70377V16.9336H9.16666V11.5539Z" fill="#222222"/>
<path d="M6.16398 14.0768L5.46828 15.2995L4.77261 14.0768V11.5541H3.69839V14.4109L5.13377 16.9336L5.80293 16.9335L7.2382 14.4109V11.5541H6.16398V14.0768Z" fill="#222222"/>
<path d="M12.865 11.5466H11.0951V14.8223V15.4082V16.9335H12.1693V15.4082H12.865C13.841 15.4082 14.635 14.5421 14.635 13.4774C14.635 12.4128 13.841 11.5466 12.865 11.5466V11.5466ZM12.865 14.2364H12.1693V12.7185H12.865C13.2486 12.7185 13.5607 13.0589 13.5607 13.4774C13.5607 13.8959 13.2486 14.2364 12.865 14.2364Z" fill="#222222"/>
<path d="M13.0951 4.49492L11.7856 8.78047H6.54772L5.23825 4.49492L7.8572 5.92344L9.16667 3.06641L10.4761 5.92344L13.0951 4.49492Z" fill="#FFF375"/>
<path d="M13.0951 4.49492L11.7856 8.78047H9.16666V3.06641L10.4761 5.92344L13.0951 4.49492Z" fill="#FDBF00"/>
<path d="M5.76141 8.2785H12.572V9.45038H5.76141V8.2785Z" fill="#FDBF00"/>
<path d="M9.16666 8.2785H12.5719V9.45038H9.16666V8.2785Z" fill="#FE9100"/>
</svg>
