<svg width="20" height="20" viewBox="0 0 20 20" fill="none" xmlns="http://www.w3.org/2000/svg">
<g clip-path="url(#clip0)">
<path d="M12.6148 2.44691L19.5967 14.54C19.8527 14.9835 20 15.4976 20 16.0465C20 17.7133 18.6487 19.0646 16.9818 19.0646H9.99997L7.58548 9.99996L9.99997 0.935349C11.1179 0.935349 12.0932 1.54367 12.6148 2.44691Z" fill="#3B4145"/>
<path d="M7.38517 2.44691L0.403212 14.54C0.147196 14.9835 -3.05176e-05 15.4976 -3.05176e-05 16.0465C-3.05176e-05 17.7133 1.35122 19.0646 3.01809 19.0646H9.99997V0.935349C8.882 0.935349 7.90673 1.54367 7.38517 2.44691Z" fill="#525A61"/>
<path d="M18.5513 15.1436L11.5694 3.05065C11.2547 2.50537 10.6769 2.16131 10.0519 2.14362L16.0234 17.8575H16.9819C17.9803 17.8575 18.7928 17.0451 18.7928 16.0466C18.7928 15.7295 18.7091 15.4172 18.5513 15.1436Z" fill="#FFB751"/>
<path d="M17.377 15.1436C17.5134 15.4173 17.5855 15.7295 17.5855 16.0466C17.5855 17.045 16.8849 17.8575 16.0233 17.8575H3.01807C2.01968 17.8575 1.20721 17.045 1.20721 16.0466C1.20721 15.7295 1.29093 15.4173 1.44866 15.1436L8.43053 3.05065C8.75409 2.4905 9.3553 2.14241 9.99995 2.14241C10.0173 2.14241 10.0346 2.1428 10.0519 2.14362C10.5883 2.16456 11.0837 2.5078 11.3537 3.05065L17.377 15.1436Z" fill="#FFD764"/>
<path d="M9.99997 13.8333V15.8453C10.5557 15.8453 11.006 15.395 11.006 14.8393C11.006 14.2836 10.5557 13.8333 9.99997 13.8333Z" fill="#3B4145"/>
<path d="M9.99998 13.8333C10.111 13.8333 10.2012 14.2836 10.2012 14.8393C10.2012 15.3951 10.111 15.8454 9.99998 15.8454C9.44424 15.8454 8.99393 15.3951 8.99393 14.8393C8.99393 14.2836 9.44424 13.8333 9.99998 13.8333Z" fill="#525A61"/>
<path d="M9.99997 5.18149V12.6262C10.5557 12.6262 11.006 12.1755 11.006 11.6201V6.18754C11.006 5.6318 10.5557 5.18149 9.99997 5.18149Z" fill="#3B4145"/>
<path d="M9.99998 5.18149C10.111 5.18149 10.2012 5.6318 10.2012 6.18754V11.6201C10.2012 12.1754 10.111 12.6262 9.99998 12.6262C9.44424 12.6262 8.99393 12.1755 8.99393 11.6201V6.18754C8.99393 5.6318 9.44424 5.18149 9.99998 5.18149Z" fill="#525A61"/>
</g>
<defs>
<clipPath id="clip0">
<rect width="20" height="20" fill="white"/>
</clipPath>
</defs>
</svg>
