<svg width="20" height="20" viewBox="0 0 20 20" fill="none" xmlns="http://www.w3.org/2000/svg">
<path d="M5 7.85565H0.715481C0.322176 7.85565 0.0041841 8.17364 0 8.57113V19.2824C0 19.6799 0.322176 19.9979 0.715481 19.9979H5C5.39749 19.9979 5.71548 19.6757 5.71548 19.2824V8.57113C5.71548 8.17364 5.39331 7.85565 5 7.85565Z" fill="white"/>
<path d="M12.1423 0.00210571H7.85775C7.46445 0.00210571 7.14227 0.320097 7.14227 0.713403V19.2824C7.14227 19.6799 7.46445 19.9979 7.85775 19.9979H12.1423C12.5397 19.9979 12.8577 19.6757 12.8577 19.2824V0.717587C12.8577 0.320097 12.5356 0.00210571 12.1423 0.00210571Z" fill="white"/>
<path d="M19.2845 5.71339H15C14.6025 5.71339 14.2845 6.03139 14.2845 6.42888V19.2824C14.2845 19.6799 14.6067 19.9979 15 19.9979H19.2845C19.682 19.9979 20 19.6758 20 19.2824V6.42888C20 6.03139 19.6779 5.71339 19.2845 5.71339Z" fill="white"/>
</svg>
