<svg width="20" height="20" viewBox="0 0 20 20" fill="none" xmlns="http://www.w3.org/2000/svg">
<path d="M20 3.33324H0V16.6667H20V3.33324Z" fill="#F0F0F0"/>
<path d="M20 4.99977H0V6.66629H20V4.99977Z" fill="#D80027"/>
<path d="M20 8.33325H0V9.99977H20V8.33325Z" fill="#D80027"/>
<path d="M20 11.6663H0V13.3328H20V11.6663Z" fill="#D80027"/>
<path d="M20 14.9998H0V16.6663H20V14.9998Z" fill="#D80027"/>
<path d="M10 3.33324H0V10.5128H10V3.33324Z" fill="#2E52B2"/>
<path d="M3.89934 6.27437L3.73828 6.76984H3.21735L3.63887 7.07589L3.47781 7.57132L3.89934 7.26527L4.32059 7.57132L4.15957 7.07589L4.5811 6.76984H4.06012L3.89934 6.27437Z" fill="#F0F0F0"/>
<path d="M4.06012 8.55781L3.89934 8.06238L3.73828 8.55781H3.21735L3.63887 8.8639L3.47781 9.35933L3.89934 9.05324L4.32059 9.35933L4.15957 8.8639L4.5811 8.55781H4.06012Z" fill="#F0F0F0"/>
<path d="M1.8585 8.55781L1.69768 8.06238L1.53662 8.55781H1.01569L1.43721 8.8639L1.27615 9.35933L1.69768 9.05324L2.11897 9.35933L1.95795 8.8639L2.3794 8.55781H1.8585Z" fill="#F0F0F0"/>
<path d="M1.69768 6.27437L1.53662 6.76984H1.01569L1.43721 7.07589L1.27615 7.57132L1.69768 7.26527L2.11897 7.57132L1.95795 7.07589L2.3794 6.76984H1.8585L1.69768 6.27437Z" fill="#F0F0F0"/>
<path d="M3.89934 4.48633L3.73828 4.98184H3.21735L3.63887 5.28793L3.47781 5.78336L3.89934 5.47727L4.32059 5.78336L4.15957 5.28793L4.5811 4.98184H4.06012L3.89934 4.48633Z" fill="#F0F0F0"/>
<path d="M1.69768 4.48633L1.53662 4.98184H1.01569L1.43721 5.28793L1.27615 5.78336L1.69768 5.47727L2.11897 5.78336L1.95795 5.28793L2.3794 4.98184H1.8585L1.69768 4.48633Z" fill="#F0F0F0"/>
<path d="M6.1009 6.27437L5.93988 6.76984H5.41895L5.84043 7.07589L5.67945 7.57132L6.1009 7.26527L6.52223 7.57132L6.36117 7.07589L6.78269 6.76984H6.26176L6.1009 6.27437Z" fill="#F0F0F0"/>
<path d="M6.26176 8.55781L6.1009 8.06238L5.93988 8.55781H5.41895L5.84043 8.8639L5.67945 9.35933L6.1009 9.05324L6.52223 9.35933L6.36117 8.8639L6.78269 8.55781H6.26176Z" fill="#F0F0F0"/>
<path d="M8.46338 8.55781L8.30256 8.06238L8.1415 8.55781H7.62061L8.04205 8.8639L7.88104 9.35933L8.30256 9.05324L8.72385 9.35933L8.56279 8.8639L8.98432 8.55781H8.46338Z" fill="#F0F0F0"/>
<path d="M8.30256 6.27437L8.1415 6.76984H7.62061L8.04205 7.07589L7.88104 7.57132L8.30256 7.26527L8.72385 7.57132L8.56279 7.07589L8.98432 6.76984H8.46338L8.30256 6.27437Z" fill="#F0F0F0"/>
<path d="M6.1009 4.48633L5.93988 4.98184H5.41895L5.84043 5.28793L5.67945 5.78336L6.1009 5.47727L6.52223 5.78336L6.36117 5.28793L6.78269 4.98184H6.26176L6.1009 4.48633Z" fill="#F0F0F0"/>
<path d="M8.30256 4.48633L8.1415 4.98184H7.62061L8.04205 5.28793L7.88104 5.78336L8.30256 5.47727L8.72385 5.78336L8.56279 5.28793L8.98432 4.98184H8.46338L8.30256 4.48633Z" fill="#F0F0F0"/>
</svg>
